Coordinates
version=1
nRows=12
nColumns=24
inDegrees=yes

Units are S.I. units (second, meters, Newtons, ...)
Angles are in degrees.

endheader
time	pelvis_tilt	pelvis_list	pelvis_rotation	pelvis_tx	pelvis_ty	pelvis_tz	hip_flexion_r	hip_adduction_r	hip_rotation_r	knee_angle_r	ankle_angle_r	subtalar_angle_r	mtp_angle_r	hip_flexion_l	hip_adduction_l	hip_rotation_l	knee_angle_l	ankle_angle_l	subtalar_angle_l	mtp_angle_l	lumbar_extension	lumbar_bending	lumbar_rotation
      2.28500000	     25.60511644	     -3.71431330	     -2.23290652	      0.72343345	      0.89950537	     -0.02679771	    -36.12819679	      2.18943577	     -0.47637787	    -38.00711564	     -9.14904843	     17.54301370	     51.23935993	    -11.15640573	      1.06518744	     18.57274458	    -12.07577546	     -4.79779351	    -30.63569531	     25.32186259	    -32.73313054	     -1.27783400	      4.22599983
      2.29000000	     25.44516257	     -3.17653811	     -1.31181508	      0.72998757	      0.89982223	     -0.02873807	    -35.33219658	      1.88119554	     -2.41560846	    -39.47715525	     -9.90297875	     17.30629060	     49.34582467	    -11.37311141	      1.55589322	     20.07538204	    -12.04594951	     -4.78449856	    -31.26342547	     24.15888810	    -32.50416766	     -1.35115857	      3.11585034
      2.29500000	     25.16212505	     -2.71441337	     -0.41603695	      0.73649629	      0.89999945	     -0.03061658	    -34.38963703	      1.61587571	     -4.21713147	    -40.95501911	    -10.52322475	     16.68354232	     48.96289373	    -11.40239774	      1.95216358	     21.28585403	    -12.18028178	     -4.31728654	    -31.16874981	     24.07558791	    -32.15277001	     -1.36480724	      2.07157948
      2.30000000	     24.92549171	     -2.22984731	      0.49217072	      0.74285314	      0.90021588	     -0.03261742	    -33.49454071	      1.27769866	     -6.01460657	    -42.46201759	    -10.68492705	     16.44268651	     44.56661644	    -11.53361684	      2.38417887	     22.62866520	    -12.22530267	     -4.10163555	    -31.49032064	     22.40647382	    -31.87364227	     -1.39267017	      1.00852277
      2.30500000	     24.67594224	     -1.83696518	      1.40966332	      0.74918381	      0.90045341	     -0.03457225	    -32.62347163	      1.03745549	     -7.67415574	    -43.81594131	    -10.94957807	     15.47162363	     44.33324948	    -11.67536230	      2.69019307	     23.86560163	    -12.23858324	     -3.77994344	    -31.64166287	     22.34627806	    -31.58276102	     -1.33586351	     -0.02608970
      2.31000000	     24.43255008	     -1.44783304	      2.29060710	      0.75539653	      0.90070083	     -0.03654219	    -31.74810100	      0.74524214	     -9.27513076	    -45.16893721	    -10.98304574	     14.40225617	     43.59993336	    -11.86704189	      3.00443265	     25.14223858	    -12.17157748	     -3.83585457	    -32.36490448	     22.06049734	    -31.31273031	     -1.29140312	     -1.00842008
      2.31500000	     24.20989681	     -1.10658780	      3.16644100	      0.76155263	      0.90097707	     -0.03848897	    -30.91375664	      0.48544681	    -10.78055725	    -46.44499368	    -10.76503211	     13.33138853	     42.46611702	    -12.11256786	      3.24494828	     26.37630813	    -12.05067882	     -3.79758966	    -32.89747451	     21.78599789	    -31.06863259	     -1.20723887	     -1.97302214
      2.32000000	     24.03398862	     -0.81679709	      4.07787737	      0.76765108	      0.90132300	     -0.04051497	    -30.16147131	      0.27810833	    -12.22822718	    -47.61390865	    -10.27684599	     12.57248114	     39.74015188	    -12.45627585	      3.40095035	     27.69842100	    -11.83297943	     -3.79661109	    -33.54951045	     21.29027494	    -30.87651864	     -1.04864576	     -2.96297329
      2.32500000	     23.77747041	     -0.58771349	      4.88253324	      0.77374250	      0.90158391	     -0.04230817	    -29.29075682	      0.07821918	    -13.50125092	    -48.75834068	     -9.74308035	     11.35417699	     39.44536259	    -12.65881154	      3.50277077	     28.63325718	    -11.73996886	     -3.44815989	    -33.47228498	     21.30633376	    -30.59092790	     -0.89819549	     -3.83000421
      2.33000000	     23.61118897	     -0.40173491	      5.62054605	      0.77977458	      0.90198232	     -0.04398267	    -28.52137342	     -0.09278761	    -14.63573130	    -49.80700556	     -9.02640801	      9.91499615	     38.42206374	    -13.03392440	      3.53730331	     29.58016381	    -11.47177165	     -3.45484215	    -33.98320842	     21.13011866	    -30.40162269	     -0.73305203	     -4.60721425
      2.33500000	     23.39639312	     -0.21380672	      6.35530742	      0.78578578	      0.90228070	     -0.04572783	    -27.69409849	     -0.32336675	    -15.77477434	    -50.86130610	     -7.95442639	      9.22139131	     34.86095433	    -13.35823955	      3.57671751	     30.54411115	    -11.20842038	     -3.43129339	    -34.37955023	     20.83332451	    -30.15902343	     -0.56775215	     -5.38962262
      2.34000000	     23.24726179	     -0.10580093	      7.05387272	      0.79177907	      0.90268517	     -0.04731546	    -26.94912121	     -0.44691396	    -16.77807082	    -51.73348229	     -7.11163111	      7.95359165	     34.71209042	    -13.73620703	      3.50711209	     31.30386002	    -10.96872661	     -3.14404468	    -34.42740228	     20.84597810	    -29.97783248	     -0.34536125	     -6.13296045
